mtllib Baby_Spider_LOD.mtl
o Baby_Spider_LOD
v 4.697678 2.074 0.922
v 1.92215 3.095 0.922
v 1.565887 3.226 0.922
v 4.697678 1.390 -2.313
v 1.565887 3.215 -2.313
v 3.843063 4.492 -0.793
v 3.152451 2.651 0.039
v 2.562881 2.866 -1.241
v 3.742004 2.437 -1.241
v -0.2630615 3.215 -2.313
v -4.697678 2.074 0.922
v -1.565887 3.226 0.922
v -2.905807 -0.289 2.766
v -2.422867 2.086 1.425
v -3.022827 1.005 1.951
v -3.301483 2.672 3.085
v -3.581589 2.002 1.217
v -1.565887 3.215 -2.313
v -3.843948 4.491 -0.793
v -3.742889 2.436 -1.241
v -2.563766 2.865 -1.241
v -3.153336 2.650 0.039
v -4.697678 1.390 -2.313
v 2.905807 -0.289 2.766
v -4.697678 -0.289 1.485
v 2.484024 2.082 1.414
v 3.088074 0.993 1.943
v 3.42186 0.391 2.235
v 3.611176 -0.289 2.262
v 3.650635 1.997 1.204
v 3.368622 2.672 3.085
v 4.697678 -0.289 1.485
v -4.697678 -0.654 -3.085
v -2.315735 -4.492 0.602
v 4.697678 -0.654 -3.085
v 2.315735 -4.492 0.602
v -1.824371 -1.963 1.930
v -2.938065 -0.771 2.536
v 3.039688 -0.771 2.536
v 1.925995 -1.963 1.930
v -4.720612 2.139 -2.120
v -4.720612 2.139 0.772
v -6.44455 0.792 0.772
v -6.44455 0.792 -2.120
v -5.189377 1.773 -0.912
v -5.662445 1.403 0.318
v -6.815994 2.903 -0.482
v -6.140884 1.029 -0.916
v -4.720612 -2.481 1.231
v -7.479355 -2.481 1.231
v -7.479355 -2.481 -1.262
v -4.720612 -2.481 -1.262
v -6.082901 -5.095 4.404
v -4.699844 -4.090 4.404
v -6.082901 -4.657 -0.952
v -7.468658 -2.464 -1.224
v -7.468628 -2.481 -1.222
v -7.465958 -3.660 -1.075
v -4.727341 -2.481 -1.225
v -4.727341 -2.481 -1.262
v -7.486084 -2.481 -1.262
v -7.486084 -2.481 -1.221
v -7.486084 -2.481 1.231
v -7.468628 -2.481 1.231
v -4.727341 -2.481 1.231
v -7.468658 -2.464 4.404
v -7.465958 -4.090 4.404
v -4.699844 -3.660 -1.075
v -4.697144 -2.464 -1.224
v -4.697144 -2.464 4.404
v -6.091141 -4.732 4.475
v -7.153305 -3.961 4.475
v -7.15538 -2.712 4.475
v -5.026886 -2.712 4.475
v -5.028946 -3.961 4.475
v 6.448898 0.792 0.772
v 4.724945 2.139 0.772
v 4.724945 2.139 -2.120
v 6.448898 0.792 -2.120
v 6.820328 2.903 -0.482
v 5.666779 1.403 0.318
v 5.193726 1.773 -0.912
v 6.145218 1.029 -0.916
v 4.724945 -2.481 1.231
v 7.483688 -2.481 1.231
v 7.483688 -2.481 -1.262
v 4.724945 -2.481 -1.262
v 6.128128 -5.095 4.404
v 7.511185 -4.090 4.404
v 6.128128 -4.657 -0.952
v 4.742386 -2.464 -1.224
v 4.742401 -2.481 -1.222
v 4.745071 -3.660 -1.075
v 7.483688 -2.481 -1.225
v 7.483688 -2.481 -1.262
v 4.724945 -2.481 -1.262
v 4.724945 -2.481 -1.221
v 4.724945 -2.481 1.231
v 4.742401 -2.481 1.231
v 7.483688 -2.481 1.231
v 4.742386 -2.464 4.404
v 4.745071 -4.090 4.404
v 7.511185 -3.660 -1.075
v 7.513885 -2.464 -1.224
v 7.513885 -2.464 4.404
v 6.099487 -4.732 4.475
v 5.037308 -3.961 4.475
v 5.035233 -2.712 4.475
v 7.163742 -2.712 4.475
v 7.161667 -3.961 4.475
vn 0.3386688 0.921 -0.195
vn 0.503479 0.864 -0.003
vn -0.7626953 0.481 0.432
vn 0.0760498 0.209 -0.975
vn 0 1.000 -0.003
vn 0.8906097 -0.138 0.433
vn -0.1881866 0.512 0.838
vn 0.8310547 -0.211 0.515
vn -0.911438 -0.324 0.253
vn -0.007766724 0.942 -0.337
vn -0.3452606 0.938 -0.003
vn -0.0760498 0.209 -0.975
vn -0.8906097 -0.138 0.433
vn 0.7626953 0.481 0.432
vn -0.4953003 0.850 -0.180
vn 0 0.465 0.886
vn -0.5711517 0.190 0.799
vn 0.1881866 0.512 0.838
vn 0.5711517 0.190 0.799
vn 0.911438 -0.324 0.253
vn 0.007766724 0.942 -0.337
vn -0.8310547 -0.211 0.515
vn -0.2015991 0.346 -0.916
vn -0.5202179 -0.448 0.727
vn -0.8656769 -0.499 0.040
vn 0.2015991 0.346 -0.916
vn 0.5202179 -0.448 0.727
vn 0.8656769 -0.499 0.040
vn 0 -0.458 0.889
vn 0 -0.453 0.891
vn 1 0.000 0.000
vn -1 0.000 0.000
vn 0 -0.693 -0.721
vn 0 0.196 -0.981
vn -0.6158447 0.788 0.000
vn 0.5886078 0.683 0.432
vn -0.811264 -0.393 0.433
vn -0.1338196 0.178 -0.975
vn -0.07698059 0.098 0.992
vn -0.9534607 0.301 0.000
vn 0 0.139 0.990
vn 0.1413116 -0.181 -0.973
vn 0 -0.254 -0.967
vn 0 -1.000 0.000
vn 0.5865021 -0.807 -0.066
vn -0.001312256 -0.124 -0.992
vn -0.9999847 -0.002 0.000
vn 0.001312256 -0.124 -0.992
vn 0 -0.123 -0.992
vn 0.5799866 -0.812 -0.064
vn -0.5797272 -0.812 -0.066
vn -0.5865936 -0.807 -0.063
vn 0 0.000 1.000
vn 0 1.000 0.000
vn 0.9999847 -0.002 0.000
vn 0.6158447 0.788 0.000
vn -0.5886078 0.683 0.432
vn 0.811264 -0.393 0.433
vn 0.1338196 0.178 -0.975
vn 0.07698059 0.098 0.992
vn 0.9534607 0.301 0.000
vn -0.1413116 -0.181 -0.973
vt 1.391708 0.2875977
vt 0.8648529 0.2875977
vt 0.797226 0.2875977
vt 1.391708 0.9230347
vt 0.797226 0.9230347
vt 0.450058 0.9230347
vt -0.3917084 1.031647
vt 0.2027588 1.25795
vt -0.05157471 0.5674896
vt 0.2027588 0.2875977
vt -0.3917084 0.2875977
vt 0.2027588 0.9230347
vt -0.3917084 0.9230347
vt 0.797226 1.25795
vt 1.051575 0.5674896
vt -0.3917084 0.5674896
vt 0.8648529 1.232208
vt 0.9715118 1.033249
vt 1.086182 0.8193665
vt 1.149536 0.7011719
vt 1.185471 0.5674896
vt 1.391708 1.031647
vt 1.391708 0.5674896
vt 0.2027588 1.255798
vt -0.3917084 0.8973389
vt -0.3917084 0.4958649
vt 0.06040955 -0.2579498
vt 1.391708 0.8973389
vt 0.797226 1.255798
vt 1.391708 0.4958649
vt 0.9395752 -0.2579498
vt 0.1862946 0.7825165
vt 0 0.988205
vt 1 0.988205
vt 0.8136902 0.7825165
vt 0.9088287 0.8973389
vt 1.055328 0.4958649
vt 0.1879425 0.5674896
vt 0.2947235 1.031647
vt 0.450058 1.255798
vt 0.8721771 1.044495
vt 0.3231659 1.044495
vt 0.3231659 0.7798004
vt 0.8721771 0.7798004
vt 1.391937 0.1369934
vt 1.719177 0.7798004
vt 1.391937 1.044495
vt 0.2361145 0.1369934
vt 0.7092743 0.1369934
vt 1.915604 0.1369934
vt -0.5016632 -0.2723694
vt -0.5016632 -0.08065796
vt 0.5202332 -0.1888275
vt 0.3026428 0.210556
vt 0.08981323 0.547348
vt 0.08981323 0.5447845
vt 0.09022522 0.363739
vt 1.395248 0.1369934
vt 0.5716248 0.2263336
vt 0.5720215 0.229538
vt -0.5016632 0.229538
vt 0.5435944 0.001449585
vt 0.5150604 0.363739
vt 0.5154877 0.547348
vt 1.649399 -0.2723694
vt 1.385529 -0.08065796
vt 1.38501 0.229538
vt 1.913803 0.229538
vt 1.913284 -0.08065796
vt 0.4999847 0.04632568
vt 0.07618713 0.3707123
vt 0.07536316 0.8955841
vt 0.9246216 0.8955841
vt 0.9237976 0.3707123
vt 0.5720215 -0.9138031
vt -0.5016632 -0.9138031
vt -0.5016632 -0.3850098
vt 0.5720215 -0.3850098
vt 2.178101 0.210556
vt 1.965271 0.547348
vt 1.965271 0.5447845
vt 1.965683 0.363739
vt 2.390518 0.363739
vt 2.390945 0.547348
usemtl rbot064
s off
f 4/4/1 3/3/1 2/2/1 1/1/1
f 4/4/2 5/5/2 3/3/2
f 3/3/5 5/5/5 10/6/5
f 13/9/7 12/8/7 11/7/7
f 18/12/11 11/11/11 12/10/11
f 18/12/15 23/13/15 11/11/15
f 3/3/5 10/6/5 18/12/5 12/10/5
f 24/15/16 3/14/16 12/8/16 13/9/16
f 11/7/17 25/16/17 13/9/17
f 28/20/18 27/19/18 26/18/18 2/17/18 3/14/18 24/15/18
f 28/20/19 24/15/19 29/21/19
f 28/20/18 1/22/18 2/17/18 26/18/18 27/19/18
f 1/22/19 28/20/19 29/21/19 32/23/19
f 33/26/23 23/25/23 18/24/23
f 34/27/24 13/9/24 25/16/24
f 34/27/25 25/16/25 33/26/25
f 35/30/26 5/29/26 4/28/26
f 32/23/27 29/21/27 24/15/27 36/31/27
f 35/30/28 32/23/28 36/31/28
f 36/31/29 24/15/29 13/9/29 34/27/29
f 1/39/31 32/38/31 35/37/31 4/36/31
f 33/26/32 25/16/32 11/7/32 23/25/32
f 35/30/33 36/31/33 34/27/33 33/26/33
f 5/29/34 35/30/34 33/26/34 18/24/34 10/40/34
f 44/44/35 43/43/35 42/42/35 41/41/35
f 42/47/39 43/46/39 49/45/39
f 51/49/40 50/48/40 43/43/40 44/44/40
f 43/46/41 50/50/41 49/45/41
f 44/46/42 41/47/42 52/45/42
f 51/50/43 44/46/43 52/45/43
f 41/41/31 42/42/31 49/48/31 52/49/31
f 52/45/44 49/45/44 50/50/44 51/50/44
f 55/53/45 54/52/45 53/51/45
f 58/57/46 57/56/46 56/55/46 55/54/46
f 62/45/44 61/45/44 60/50/44 59/50/44
f 62/45/44 57/58/44 64/58/44 63/45/44
f 57/58/44 59/50/44 65/50/44 64/58/44
f 58/62/47 67/52/47 66/61/47 56/60/47 57/59/47
f 69/64/48 68/63/48 55/54/48
f 56/55/49 69/64/49 55/54/49
f 55/53/50 68/62/50 54/52/50
f 58/62/51 55/53/51 53/51/51
f 58/62/52 53/51/52 67/52/52
f 54/69/53 70/68/53 66/67/53 67/66/53 53/65/53
f 56/78/54 66/77/54 70/76/54 69/75/54
f 69/60/55 70/61/55 54/52/55 68/62/55
f 79/44/56 78/41/56 77/42/56 76/43/56
f 84/45/60 76/46/60 77/47/60
f 86/49/61 79/44/61 76/43/61 85/48/61
f 84/45/41 85/50/41 76/46/41
f 87/45/62 78/47/62 79/46/62
f 87/45/43 79/46/43 86/50/43
f 78/41/32 87/49/32 84/48/32 77/42/32
f 90/53/45 89/52/45 88/51/45
f 93/82/46 92/81/46 91/80/46 90/79/46
f 97/45/44 96/45/44 95/50/44 94/50/44
f 97/45/44 92/58/44 99/58/44 98/45/44
f 92/58/44 94/50/44 100/50/44 99/58/44
f 93/62/47 102/52/47 101/61/47 91/60/47 92/59/47
f 104/84/48 103/83/48 90/79/48
f 91/80/49 104/84/49 90/79/49
f 90/53/50 103/62/50 89/52/50
f 93/62/51 90/53/51 88/51/51
f 93/62/52 88/51/52 102/52/52
f 89/69/53 105/68/53 101/67/53 102/66/53 88/65/53
f 91/78/54 101/77/54 105/76/54 104/75/54
f 104/60/55 105/61/55 89/52/55 103/62/55
usemtl eye02
s off
f 40/35/30 39/34/30 38/33/30 37/32/30
usemtl missile
s off
f 75/74/53 74/73/53 73/72/53 72/71/53 71/70/53
f 110/74/53 109/73/53 108/72/53 107/71/53 106/70/53
usemtl flat5
s off
f 8//3 7//3 6//3
f 6//4 9//4 8//4
f 6//6 7//6 9//6
f 16//8 15//8 14//8
f 15//9 16//9 17//9
f 17//10 16//10 14//10
f 21//12 20//12 19//12
f 20//13 22//13 19//13
f 19//14 22//14 21//14
f 31//20 27//20 30//20
f 26//21 31//21 30//21
f 27//22 31//22 26//22
f 47//36 46//36 45//36
f 46//37 47//37 48//37
f 45//38 48//38 47//38
f 82//57 81//57 80//57
f 83//58 80//58 81//58
f 80//59 83//59 82//59
