mtllib Secondary_Lifter_LOD.mtl
o Secondary_Lifter_LOD
v 0.001098633 1.139 1.402
v -2.591568 1.139 -0.116
v -2.591568 1.139 -1.527
v 0.001098633 1.139 -1.527
v 2.591568 1.139 -0.116
v 2.591568 1.139 -1.527
v -1.785126 1.139 -0.697
v -2.326004 1.139 -0.402
v -2.445007 2.328 -0.718
v -2.231934 1.139 -1.004
v 1.538544 1.153 0.276
v 1.075638 2.966 0.126
v 0.6630707 2.966 -1.144
v 0.9491577 1.153 -1.538
v 1.821503 1.139 -0.730
v 2.481384 2.328 -0.751
v 2.362381 1.139 -0.435
v 2.268311 1.139 -1.037
v -0.9581146 1.153 -1.538
v -0.6720123 2.966 -1.144
v -1.084579 2.966 0.126
v -1.547485 1.153 0.276
v -0.004470825 1.153 1.397
v -0.004470825 2.966 0.911
v 0.001098633 -2.009 1.964
v -2.591568 -0.203 -1.964
v 0.001098633 -2.334 -0.447
v 0.001098633 0.294 -1.264
v 2.591568 -0.203 -1.964
v -1.138992 0.294 -1.870
v -1.468369 -0.868 -1.387
v -1.138992 -0.868 -1.870
v -1.468369 0.294 -1.748
v 1.125443 0.294 -1.870
v 1.125443 -0.868 -1.870
v 1.453476 0.294 -1.743
v 1.453476 -0.868 -1.382
v -2.591568 -1.033 -0.821
v -1.33548 -1.941 -0.128
v -2.591568 -0.544 -0.148
v -1.297729 -1.952 -0.137
v 0.001098633 -2.907 0.610
v -2.591568 -0.203 0.321
v -1.037048 -1.777 0.566
v -1.454025 -1.632 0.114
v -1.72583 -2.966 0.923
v -1.53952 -1.042 0.828
v 1.046616 -1.793 0.571
v 1.456589 -1.645 0.121
v 2.036728 -1.435 -0.515
v 0.001098633 -2.172 1.717
v 2.591568 -0.275 -1.865
v 2.036713 -1.435 -0.515
v 2.591568 -1.033 -0.821
v 1.486572 -1.449 0.367
v 2.591568 -0.203 0.321
v 1.540451 -1.051 0.829
v 1.557693 -0.924 0.976
v 1.214859 -1.552 0.659
v 1.72583 -2.966 0.923
v -2.615494 1.141 -1.962
v -2.615494 1.141 0.009
v -4.009689 -0.132 0.505
v -4.009689 -0.132 -1.465
v -3.65802 -2.017 -0.730
v -3.65802 -2.017 1.240
v -2.615494 -2.017 1.240
v -2.615494 -2.017 -0.730
v -3.672043 -1.298 0.959
v -3.200256 -0.955 0.826
v -3.200256 -0.955 3.046
v -3.672043 -1.298 3.046
v -3.491837 -1.852 1.176
v -3.491837 -1.852 3.046
v -2.908676 -1.852 1.176
v -2.908676 -1.852 3.046
v -2.72847 -1.298 0.959
v -2.72847 -1.298 3.046
v 3.99028 -0.132 0.505
v 2.596085 1.141 0.009
v 2.596085 1.141 -1.962
v 3.99028 -0.132 -1.465
v 2.596085 -2.017 1.240
v 3.638611 -2.017 1.240
v 3.638611 -2.017 -0.730
v 2.596085 -2.017 -0.730
v 3.180847 -0.955 3.046
v 3.180847 -0.955 0.826
v 3.652634 -1.298 0.959
v 3.652634 -1.298 3.046
v 3.472427 -1.852 1.176
v 3.472427 -1.852 3.046
v 2.889267 -1.852 1.176
v 2.889267 -1.852 3.046
v 2.709061 -1.298 0.959
v 2.709061 -1.298 3.046
vn 0 1.000 0.000
vn 0.4617004 0.271 0.845
vn 0.5423889 0.287 -0.790
vn 0.9293671 0.212 -0.302
vn -0.4617004 0.271 0.845
vn -0.5423889 0.287 -0.790
vn -0.9293671 0.212 -0.302
vn 0.5743866 0.212 0.791
vn -0.5743866 0.212 0.791
vn 0 0.212 -0.977
vn -0.9784851 -0.139 -0.153
vn 0.9784851 -0.139 -0.153
vn -0.4991302 0.152 0.853
vn 0.3001556 -0.283 -0.911
vn -0.3003845 -0.283 -0.911
vn -0.8260193 0.000 -0.564
vn -0.3315582 -0.280 -0.901
vn 0 0.000 -1.000
vn 0 -1.000 0.000
vn -0.3054047 -0.770 -0.560
vn 0.0001220703 0.309 -0.951
vn 0.3596802 0.000 -0.933
vn 0.8176422 -0.171 -0.550
vn -0.6727448 -0.599 0.435
vn -0.3484802 -0.824 -0.447
vn 0.5423889 -0.514 -0.664
vn 0.4617004 -0.001 0.887
vn 0.4052887 -0.803 -0.436
vn 0.672348 -0.617 0.409
vn 0.2519379 -0.783 -0.569
vn 0.683609 -0.590 0.429
vn -0.4617004 -0.001 0.887
vn 0.9784851 0.085 -0.188
vn -0.5423889 -0.514 -0.664
vn -0.6812439 -0.610 0.405
vn -0.9784851 0.085 -0.188
vn -0.0001220703 0.309 -0.951
vn -0.3612976 0.288 0.887
vn 0.4865875 0.270 0.831
vn 0.4485168 0.157 0.880
vn 1 0.000 0.000
vn -1 0.000 0.000
vn -0.6743469 0.738 0.000
vn -0.9830322 -0.183 0.000
vn 0 -0.363 -0.932
vn 0 0.363 0.932
vn -0.5877838 0.809 0.000
vn -0.9510498 -0.309 0.000
vn 0.9510498 -0.309 0.000
vn 0.5877838 0.809 0.000
vn 0 0.000 1.000
vn 0.6743469 0.738 0.000
vn 0.9830322 -0.183 0.000
vt 0.5002136 0.2247925
vt -0.01281738 0.5226746
vt -0.01281738 0.7998962
vt 0.5002136 0.7998352
vt 1.012817 0.5226746
vt 1.012817 0.7999115
vt 0.3630829 0.4925995
vt 0.3242493 0.4925995
vt 0.3157043 0.5779572
vt 0.3310089 0.4925995
vt 1.429688 0.007110596
vt 1.442841 0.4731598
vt 1.822937 0.4731598
vt 1.816559 0.007110596
vt 0.6220093 0.4925995
vt 0.6693726 0.5779572
vt 0.6608276 0.4925995
vt 0.6540833 0.4925995
vt 0.1834259 0.007110596
vt 0.1770477 0.4731598
vt 0.5571442 0.4731598
vt 0.5702972 0.007110596
vt 1 0.007110596
vt 1 0.4731598
vt 0.6699219 0.4816589
vt 0.611145 0.8540039
vt 0.3368988 0.8540039
vt 0.2781219 0.4816589
vt 0.5001984 0.6965179
vt 0.5001984 0.05030823
vt 0.004760742 0.6965179
vt 0.004760742 0.4208984
vt 0.5001984 -0.01631165
vt 0.5001984 0.5230255
vt 0.995224 0.4208984
vt 0.5742798 0.751709
vt 0.4558258 0.6060638
vt 0.5742798 0.5606079
vt 0.5445404 0.7971649
vt 0.1122589 0.711853
vt 0.8872681 0.711853
vt 0.8872681 0.2881317
vt 0.1122589 0.2881317
vt 0.425705 0.5943604
vt 0.5742798 0.4391937
vt 0.5432587 0.3939209
vt 0.4545441 0.2028198
vt 0.5742798 0.2480927
vt 0.004760742 0.2505646
vt 0.2447815 0.06422424
vt 0.004760742 0.3509674
vt 0.2519989 0.06195068
vt 0.5001984 -0.1340485
vt 0.4167938 0.2832489
vt 0.3868561 0.2936249
vt 0.3673401 0.1979065
vt 0.380722 0.3360291
vt 0.6999969 0.09454346
vt 0.7783356 0.1250305
vt 0.8891907 0.1681824
vt 0.5001984 0.01676941
vt 0.995224 0.4061127
vt 0.995224 0.2505646
vt 0.7840729 0.1651459
vt 0.7943726 0.2468567
vt 0.7976532 0.272995
vt 0.7321472 0.1441345
vt 0.5663757 0.2820587
vt 0.6018219 0.3353271
vt 0.6151276 0.1979065
vt 0.5958099 0.2927246
vt 0.995224 0.6965179
vt 0.5 0.1786804
vt 0.1634521 0.4357758
vt 0.2920074 0.8517609
vt 0.7079773 0.8517609
vt 0.8365326 0.4357758
vt 0.8553925 0.7353363
vt 0.396637 0.7353363
vt 0.2810669 0.2566071
vt 0.7398071 0.2566071
vt 0.5687103 -0.05493164
vt 0.1099548 -0.05493164
vt 0.1099548 0.1164703
vt 0.5687103 0.1164703
vt 0.5905151 0.1078339
vt 0.1078339 0.1078339
vt 0.4094696 0.8921509
vt 0.8921509 0.8921509
vt 0.7705536 0.5759583
vt 0.2878723 0.5759583
vt 0.3624115 0.5849609
vt 0.274826 0.06140137
vt 0.0151825 0.06140137
vt 0.0151825 0.9385834
vt 0.3056488 0.0854187
vt 0.4999847 0.02868652
vt 0.5 0.9712982
vt 0.3056488 0.9712982
vt 0.1036377 0.1772308
vt 0.1036377 0.9712982
vt 0.896347 0.1772308
vt 0.896347 0.9712982
vt 0.6943359 0.0854187
vt 0.6943359 0.9712982
usemtl rbot058
s off
f 2/31/13 25/30/13 1/29/13
f 4/29/14 28/34/14 27/33/14 26/32/14
f 29/35/15 27/33/15 28/34/15 4/29/15
f 38/49/20 26/32/20 27/33/20
f 26/32/21 3/31/21 4/29/21
f 39/50/25 38/49/25 27/33/25 41/52/25
f 42/53/25 39/50/25 41/52/25
f 42/53/28 27/33/28 29/35/28
f 53/60/30 42/53/30 29/35/30 52/62/30
f 53/60/30 52/62/30 54/63/30
f 41/52/25 27/33/25 42/53/25
f 4/29/37 6/72/37 29/35/37
f 2/31/38 43/32/38 25/30/38
f 1/29/39 56/35/39 5/72/39
f 1/29/40 25/30/40 58/66/40 56/35/40
f 61/95/45 68/94/45 65/93/45 64/92/45
f 66/93/46 67/94/46 62/95/46 63/92/46
f 81/95/45 82/92/45 85/93/45 86/94/45
f 84/93/46 79/92/46 80/95/46 83/94/46
usemtl eye02
s off
f 14/14/4 13/13/4 12/12/4 11/11/4
f 22/22/7 21/21/7 20/20/7 19/19/7
f 11/11/8 12/12/8 24/24/8 23/23/8
f 23/23/9 24/24/9 21/21/9 22/22/9
usemtl rbot059
s off
f 3/3/1 2/2/1 1/1/1
f 3/3/1 1/1/1 4/4/1
f 4/4/1 1/1/1 5/5/1
f 4/4/1 5/5/1 6/6/1
f 9/9/2 8/8/2 7/7/2
f 7/7/3 10/10/3 9/9/3
f 17/17/5 16/16/5 15/15/5
f 16/16/6 18/18/6 15/15/6
f 19/28/10 20/27/10 13/26/10 14/25/10
f 9/9/11 10/10/11 8/8/11
f 18/18/12 16/16/12 17/17/12
f 32/38/16 31/37/16 30/36/16
f 33/39/17 30/36/17 31/37/17
f 36/46/1 34/45/1 30/36/1 33/39/1 28/44/1
f 32/38/19 35/48/19 37/47/19 31/37/19
f 36/46/22 35/48/22 34/45/22
f 35/48/23 36/46/23 37/47/23
f 46/56/26 45/55/26 44/54/26
f 47/57/27 46/56/27 44/54/27
f 60/70/32 57/69/32 48/68/32
f 60/70/33 49/71/33 57/69/33
f 48/68/34 49/71/34 60/70/34
f 45/55/36 46/56/36 47/57/36
f 12/77/1 13/76/1 20/75/1 21/74/1 24/73/1
f 64/81/43 63/80/43 62/79/43 61/78/43
f 68/85/19 67/84/19 66/83/19 65/82/19
f 65/86/44 66/87/44 63/91/44 64/90/44
f 82/81/52 81/78/52 80/79/52 79/80/52
f 86/85/19 85/82/19 84/83/19 83/84/19
f 85/86/53 82/90/53 79/91/53 84/87/53
usemtl rbot060
s off
f 40/51/24 38/49/24 39/50/24
f 43/32/24 40/51/24 39/50/24 42/53/24
f 51/61/29 42/53/29 50/60/29 49/59/29 48/58/29
f 55/64/29 49/59/29 50/60/29 54/63/29
f 58/66/31 57/65/31 55/64/31 54/63/31 56/35/31
f 58/66/31 25/30/31 59/67/31 55/64/31 57/65/31
f 59/67/29 25/30/29 51/61/29 48/58/29
f 55/64/29 59/67/29 48/58/29 49/59/29
f 43/32/35 42/53/35 51/61/35 25/30/35
f 29/35/41 6/72/41 5/72/41 56/35/41 54/63/41 52/62/41
f 26/32/42 38/49/42 40/51/42 43/32/42 2/31/42 3/31/42
f 61/89/41 62/88/41 67/87/41 68/86/41
f 81/89/42 86/86/42 83/87/42 80/88/42
usemtl glow04
s off
f 35/43/18 32/42/18 30/41/18 34/40/18
usemtl rbot012
s off
f 72/99/47 71/98/47 70/97/47 69/96/47
f 74/101/48 72/99/48 69/96/48 73/100/48
f 76/103/19 74/101/19 73/100/19 75/102/19
f 78/105/49 76/103/49 75/102/49 77/104/49
f 71/98/50 78/105/50 77/104/50 70/97/50
f 90/99/50 89/96/50 88/97/50 87/98/50
f 92/101/49 91/100/49 89/96/49 90/99/49
f 94/103/19 93/102/19 91/100/19 92/101/19
f 96/105/48 95/104/48 93/102/48 94/103/48
f 87/98/47 88/97/47 95/104/47 96/105/47
usemtl flat0
s off
f 78//51 71//51 72//51 74//51 76//51
f 96//51 94//51 92//51 90//51 87//51
