mtllib Level_27_Boss.mtl
o Level_27_Boss
v -12.65565 -1.281 -6.754
v -12.64662 -1.397 4.081
v -4.840866 -8.434 2.240
v -8.507065 -9.987 0.741
v -8.504944 -5.116 1.615
v -7.66655 -5.859 0.122
v -9.516846 -4.183 -0.175
v 4.818466 -8.434 2.240
v 12.62415 -1.281 -6.754
v 2.451828 -12.012 -0.730
v 2.454086 -6.814 0.204
v 3.82486 -5.268 -1.740
v 12.65565 -1.260 4.081
v 1.269989 -5.220 -1.801
v -3.276993 12.012 2.908
v -9.808609 6.330 2.908
v -3.276993 11.989 -3.840
v -9.808609 6.426 -3.840
v -6.071518 4.680 6.754
v 9.786224 6.426 -3.840
v 3.254608 11.989 -3.840
v 6.049133 4.680 6.754
v 9.786224 6.330 2.908
v 3.254608 12.012 2.908
v -2.608521 -5.117 3.473
v -5.281464 -0.488 5.067
v -2.608505 4.142 6.661
v 2.737366 4.142 6.661
v 5.410309 -0.488 5.067
v 2.737366 -5.117 3.473
v 7.086731 -6.356 0.583
v 8.071045 -12.013 1.476
v 9.712326 -3.952 0.268
v 8.073898 -5.454 2.653
v -3.312225 -5.694 -1.205
v -1.87648 -13.946 0.097
v -0.2084351 -5.753 -1.130
v -2.400803 -6.919 0.336
v -1.873718 -7.631 1.231
v -6.470932 11.982 9.376
v -10.4532 13.120 9.376
v -10.45285 13.120 3.652
v -6.470917 11.982 3.658
v -9.838928 9.028 9.376
v -9.838928 9.028 3.658
v -9.209122 14.909 -1.663
v -9.232391 14.917 3.627
v -12.41307 11.984 3.627
v -12.42326 11.979 -1.663
v -9.546356 6.600 3.627
v -4.301514 11.176 -3.841
v -9.591644 6.561 -3.841
v -4.275787 11.198 3.627
v -7.135788 11.932 9.491
v -9.722397 9.663 9.491
v -10.26569 12.892 9.491
v 10.42169 13.120 3.652
v 10.42203 13.120 9.376
v 6.439758 11.982 9.376
v 6.439758 11.982 3.658
v 9.807755 9.028 3.658
v 9.807755 9.028 9.376
v 12.3819 11.984 3.627
v 9.201218 14.917 3.627
v 9.177963 14.909 -1.663
v 9.515182 6.600 3.627
v 12.39209 11.979 -1.663
v 4.270355 11.176 -3.841
v 9.560471 6.561 -3.841
v 4.244614 11.198 3.627
v 10.23453 12.892 9.491
v 9.691238 9.663 9.491
v 7.104614 11.932 9.491
v 14.91396 4.315 -2.013
v 15.99379 2.948 0.828
v 16.94482 1.743 -2.116
v 13.35266 -2.560 2.923
v 14.29671 5.097 2.880
v 18.73309 -0.521 2.923
v 9.938736 6.451 2.880
v 9.938736 6.451 -3.152
v 14.29671 5.097 -3.152
v 18.73309 -0.521 -3.075
v 19.96109 6.391 -0.730
v 13.35266 -2.560 -3.075
v 18.09427 -6.782 10.169
v 20.04918 -3.800 10.169
v 17.77071 -5.928 -1.001
v 18.80655 -0.682 -1.571
v 18.80655 -0.682 -1.647
v 13.42615 -2.721 -1.647
v 13.42615 -2.721 -1.563
v 13.42613 -2.721 3.552
v 13.46019 -2.708 3.552
v 13.46019 -2.708 -1.563
v 18.80655 -0.682 3.552
v 13.44777 -2.675 -1.568
v 13.44777 -2.675 10.169
v 14.6544 -5.844 10.169
v 14.33636 -5.005 -1.257
v 19.73114 -2.961 -1.257
v 18.85307 -0.627 -1.568
v 18.85307 -0.627 10.169
v 17.81039 -6.081 10.317
v 15.16859 -5.361 10.317
v 14.2419 -2.927 10.317
v 18.39314 -1.355 10.317
v 19.31174 -3.791 10.317
v -14.96246 4.339 -1.998
v -16.95338 1.772 -2.108
v -16.01834 2.978 0.814
v -18.6366 -0.398 2.923
v -14.2494 5.259 2.880
v -13.23859 -2.389 2.923
v -14.2494 5.259 -3.152
v -9.903427 6.651 -3.152
v -9.903427 6.651 2.880
v -18.6366 -0.398 -3.075
v -19.95079 6.391 -0.730
v -13.23859 -2.389 -3.075
v -17.76863 -6.640 10.169
v -14.34134 -5.657 10.169
v -17.45627 -5.781 -1.001
v -13.24741 -2.484 -1.571
v -13.24741 -2.484 -1.647
v -18.65405 -0.516 -1.647
v -18.65405 -0.516 -1.563
v -18.65404 -0.516 3.552
v -18.61981 -0.528 3.552
v -18.61983 -0.528 -1.563
v -13.24741 -2.484 3.552
v -18.60793 -0.495 -1.568
v -18.60793 -0.495 10.169
v -19.76241 -3.684 10.169
v -19.45538 -2.840 -1.257
v -14.03432 -4.813 -1.257
v -13.17627 -2.472 -1.568
v -13.17627 -2.472 10.169
v -17.52621 -5.923 10.317
v -19.05742 -3.653 10.317
v -18.17078 -1.205 10.317
v -13.99931 -2.723 10.317
v -14.89407 -5.169 10.317
vn -0.670517 -0.742 -0.007
vn 0.8473053 -0.094 0.523
vn 0.02082825 -0.152 -0.988
vn 0 -0.783 -0.622
vn 0.6752472 -0.738 -0.001
vn -0.8852844 -0.082 0.458
vn -0.6563263 0.754 -0.003
vn -0.3805084 0.447 -0.810
vn -0.07650757 -0.331 0.941
vn 0.3801422 0.446 -0.810
vn 0.5981903 0.338 0.726
vn 0.4731598 0.544 0.693
vn 0.08241272 -0.331 0.940
vn -0.6483765 0.761 0.011
vn -0.4731598 0.544 0.693
vn -0.6016998 0.331 0.727
vn 0.6562958 0.754 0.011
vn 0.648407 0.761 -0.003
vn 0.9351044 0.354 0.005
vn 0.937973 0.347 -0.003
vn 0 -0.325 0.946
vn 0 1.000 -0.003
vn -0.9384155 0.345 0.005
vn 0 0.465 0.886
vn 0 0.214 -0.977
vn 0.2747498 0.962 0.000
vn -0.9889069 -0.148 0.000
vn 0.6593323 -0.752 0.000
vn -0.6779022 0.735 -0.004
vn -0.8826752 -0.470 0.002
vn -0.2276764 0.250 -0.941
vn -0.8849335 -0.466 0.008
vn -0.2261505 0.259 -0.939
vn -0.6736145 0.739 0.001
vn 0 0.000 1.000
vn 0.6041565 0.797 -0.004
vn 0.6002197 0.800 0.001
vn 0.6573639 -0.754 0.000
vn -0.2747498 0.962 0.000
vn 0.9889069 -0.148 0.000
vn -0.6593323 -0.752 0.000
vn 0.6779022 0.735 -0.004
vn 0.8826752 -0.470 0.002
vn 0.2276764 0.250 -0.941
vn 0.8849335 -0.466 0.008
vn 0.2261505 0.259 -0.939
vn 0.6736145 0.739 0.001
vn -0.6041565 0.797 -0.004
vn -0.6002197 0.800 0.001
vn -0.6573639 -0.754 0.000
vn -0.7848053 -0.620 0.000
vn -0.002258301 0.006 1.000
vn 0.2967682 0.955 0.000
vn 0.001708984 0.005 1.000
vn 0.7848053 0.620 0.000
vn -0.4347229 0.736 0.519
vn 0.6788177 -0.576 0.455
vn 0.1739044 0.176 -0.969
vn 0.003982544 -0.011 -1.000
vn -0.002990723 -0.010 -1.000
vn -0.9351349 -0.354 0.000
vn 0.3542786 -0.935 0.000
vn 0.8344574 -0.547 -0.066
vn -0.9345398 -0.356 0.000
vn 0.04504395 -0.115 -0.992
vn 0.04257202 -0.116 -0.992
vn 0.8300934 -0.554 -0.064
vn -0.2544098 -0.965 -0.066
vn -0.2624969 -0.963 -0.063
vn -0.3542786 0.935 0.000
vn 0.9357147 0.353 0.000
vn 0.7901764 -0.613 0.000
vn 0.002212524 0.006 1.000
vn -0.3050842 0.952 0.000
vn -0.001754761 0.005 1.000
vn -0.7901764 0.613 0.000
vn 0.4347229 0.736 0.519
vn -0.6788177 -0.576 0.455
vn -0.1739044 0.176 -0.969
vn -0.003890991 -0.011 -1.000
vn 0.003082275 -0.010 -1.000
vn 0.9381866 -0.346 0.000
vn -0.3461151 -0.938 0.000
vn 0.2750244 -0.959 -0.066
vn -0.3420105 -0.940 0.000
vn -0.9402466 0.340 0.000
vn -0.04104614 -0.117 -0.992
vn -0.04353333 -0.116 -0.992
vn 0.2672424 -0.962 -0.064
vn -0.822525 -0.565 -0.066
vn -0.8273621 -0.558 -0.063
vn 0.3420105 0.940 0.000
vn 0.9391174 -0.344 0.000
vt -0.3917084 0.4958649
vt -0.3917084 0.5674896
vt 0.06040955 -0.2579498
vt 0.5040741 0.1436615
vt 0.504303 0.7018738
vt 0.59375 0.6167297
vt 0.3963318 0.8087311
vt 0.9395752 -0.2579498
vt 1.391708 0.4958649
vt 0.5433807 0.1859589
vt 0.5436249 0.7816162
vt 0.6898804 0.9587708
vt 1.391708 0.5674896
vt 0.4172821 0.9643555
vt 0.2027588 0.2875977
vt -0.3917084 0.2875977
vt 0.2027588 0.9230347
vt 0.2027588 1.255798
vt -0.3917084 0.8973389
vt -0.05157471 0.5674896
vt 1.391708 0.8973389
vt 0.797226 1.255798
vt 1.051575 0.5674896
vt 1.391708 1.031647
vt 0.797226 1.25795
vt -0.3917084 0.9230347
vt -0.3917084 1.031647
vt 0.2027588 1.25795
vt 1.391708 0.2875977
vt 0.797226 0.2875977
vt 1.391708 0.9230347
vt 0.797226 0.9230347
vt 0.2947235 1.031647
vt 0.9088287 0.8973389
vt 1.055328 0.4958649
vt 0.219101 0.04232788
vt -0.06178284 0.5
vt 0.219101 0.9576569
vt 0.780899 0.9576569
vt 1.061783 0.4999847
vt 0.7808838 0.04232788
vt 0.3599243 0.6864014
vt 0.4649353 0.0381012
vt 0.6400604 0.9618835
vt 0.4652405 0.7897797
vt 0.3803558 0.9732971
vt 0.5335541 0.02766418
vt 0.7115326 0.9664917
vt 0.4774475 0.8328552
vt 0.533844 0.7512817
vt 0.4604034 0.9664001
vt 0.1165314 0.9664001
vt 0.11586 0.002685547
vt 0.4604034 0.004196167
vt 0.7771301 0.9664001
vt 0.7771301 0.004196167
vt 0.8721771 0.7798004
vt 0.7092743 0.1369934
vt 0.2361145 0.1369934
vt 1.719177 0.7798004
vt 1.915604 0.1369934
vt 1.391937 0.1369934
vt 0.8721771 1.044495
vt 0.3231659 0.7798004
vt 1.391937 1.044495
vt 0.3231659 1.044495
vt 0.7071381 0.9501648
vt 0.4617004 0.9499512
vt 0.2455444 0.9497681
vt 0.4966736 0.1560669
vt -0.5016632 -0.2723694
vt -0.5016632 -0.08065796
vt 0.5202332 -0.1888275
vt 1.395248 0.1369934
vt 0.5716248 0.2263336
vt 0.5720215 0.229538
vt -0.5016632 0.229538
vt 0.5435944 0.001449585
vt 2.506271 0.108017
vt 2.647812 0.3222351
vt 2.584412 0.4907074
vt 2.194168 0.342865
vt 2.195068 0.3404999
vt 2.258316 0.1746674
vt 1.649399 -0.2723694
vt 1.385529 -0.08065796
vt 1.38501 0.229538
vt 1.913803 0.229538
vt 1.913284 -0.08065796
vt 0.4999847 0.04632568
vt 0.07618713 0.3707123
vt 0.07536316 0.8955841
vt 0.9246216 0.8955841
vt 0.9237976 0.3707123
vt 0.5720215 -0.9138031
vt -0.5016632 -0.9138031
vt -0.5016632 -0.3850098
vt 0.5720215 -0.3850098
vt 0.3136139 0.9379883
vt 0.7708588 0.9568787
vt 0.5561066 0.947998
vt 0.5438385 0.1603088
vt -0.03703308 0.1186066
vt 0.2100067 0.1884918
vt 0.2719574 0.3575134
vt -0.1201782 0.5002441
vt -0.1210327 0.497879
vt -0.181366 0.3309479
usemtl missile
s off
f 108/94/35 107/93/35 106/92/35 105/91/35 104/90/35
f 143/94/35 142/93/35 141/92/35 140/91/35 139/90/35
usemtl rbot012
s off
f 6/6/2 5/5/2 4/4/2
f 6/6/3 4/4/3 7/7/3
f 12/12/2 11/11/2 10/10/2
f 12/12/3 10/10/3 14/14/3
f 10/10/6 11/11/6 14/14/6
f 4/4/6 5/5/6 7/7/6
f 33/44/3 32/43/3 31/42/3
f 32/43/6 34/45/6 31/42/6
f 33/44/2 34/45/2 32/43/2
f 37/48/3 36/47/3 35/46/3
f 35/46/6 36/47/6 39/50/6 38/49/6
f 37/48/2 39/50/2 36/47/2
f 43/54/26 42/53/26 41/52/26 40/51/26
f 42/53/27 45/56/27 44/55/27 41/52/27
f 45/56/28 43/54/28 40/51/28 44/55/28
f 41/52/35 44/55/35 40/51/35
f 60/54/39 59/51/39 58/52/39 57/53/39
f 57/53/40 58/52/40 62/55/40 61/56/40
f 61/56/41 62/55/41 59/51/41 60/54/41
f 59/51/35 62/55/35 58/52/35
f 74/67/56 75/68/56 84/70/56
f 84/70/57 75/68/57 76/69/57
f 74/67/58 84/70/58 76/69/58
f 111/101/77 109/99/77 119/102/77
f 111/101/78 119/102/78 110/100/78
f 110/100/79 119/102/79 109/99/79
usemtl boss02
s off
f 3/3/1 2/2/1 1/1/1
f 9/9/4 8/8/4 3/3/4 1/1/4
f 9/9/5 13/13/5 8/8/5
f 17/17/7 16/16/7 15/15/7
f 1/1/8 18/19/8 17/18/8
f 3/3/9 19/20/9 2/2/9
f 9/9/10 21/22/10 20/21/10
f 23/24/11 22/23/11 13/13/11
f 23/24/12 24/25/12 22/23/12
f 13/13/13 22/23/13 8/8/13
f 17/17/14 18/26/14 16/16/14
f 19/20/15 15/28/15 16/27/15
f 16/27/16 2/2/16 19/20/16
f 20/31/17 24/30/17 23/29/17
f 20/31/18 21/32/18 24/30/18
f 13/13/19 20/34/19 23/33/19
f 13/13/20 9/35/20 20/34/20
f 8/8/21 22/23/21 19/20/21 3/3/21
f 24/30/22 21/32/22 17/17/22 15/15/22
f 1/1/23 2/2/23 16/27/23 18/19/23
f 22/23/24 24/25/24 15/28/24 19/20/24
f 21/22/25 9/9/25 1/1/25 17/18/25
f 48/59/29 47/58/29 46/57/29
f 50/62/30 48/61/30 49/60/30
f 49/64/31 46/57/31 51/63/31
f 50/62/32 49/60/32 52/65/32
f 49/64/33 51/63/33 52/66/33
f 48/59/34 46/57/34 49/64/34
f 53/62/35 47/61/35 48/61/35 50/62/35
f 53/62/36 51/65/36 46/60/36
f 53/62/37 46/60/37 47/61/37
f 51/63/38 53/58/38 50/59/38 52/66/38
f 65/57/42 64/58/42 63/59/42
f 67/60/43 63/61/43 66/62/43
f 68/63/44 65/57/44 67/64/44
f 69/65/45 67/60/45 66/62/45
f 69/66/46 68/63/46 67/64/46
f 67/64/47 65/57/47 63/59/47
f 70/62/35 66/62/35 63/61/35 64/61/35
f 65/60/48 68/65/48 70/62/48
f 64/61/49 65/60/49 70/62/49
f 68/63/50 69/66/50 66/59/50 70/58/50
f 76/69/51 75/68/51 74/67/51
f 79/61/52 78/60/52 77/62/52
f 78/57/53 82/64/53 81/66/53 80/63/53
f 78/60/54 80/65/54 77/62/54
f 79/58/55 83/59/55 82/64/55 78/57/55
f 82/60/59 83/61/59 85/62/59
f 81/65/60 82/60/60 85/62/60
f 80/63/61 81/66/61 85/59/61 77/58/61
f 77/62/62 85/62/62 83/61/62 79/61/62
f 88/73/63 87/72/63 86/71/63
f 92/62/62 91/62/62 90/61/62 89/61/62
f 92/62/62 95/74/62 94/74/62 93/62/62
f 95/74/62 89/61/62 96/61/62 94/74/62
f 100/78/64 99/72/64 98/77/64 97/76/64 95/75/64
f 102/81/65 101/80/65 88/79/65
f 102/81/66 88/79/66 100/84/66 95/83/66 97/82/66
f 88/73/67 101/78/67 87/72/67
f 100/78/68 88/73/68 86/71/68
f 100/78/69 86/71/69 99/72/69
f 87/89/35 103/88/35 98/87/35 99/86/35 86/85/35
f 97/98/70 98/97/70 103/96/70 102/95/70
f 102/76/71 103/77/71 87/72/71 101/78/71
f 111/101/72 110/100/72 109/99/72
f 114/62/73 113/60/73 112/61/73
f 113/57/74 117/63/74 116/66/74 115/64/74
f 114/62/75 117/65/75 113/60/75
f 112/58/76 113/57/76 115/64/76 118/59/76
f 120/62/80 118/61/80 115/60/80
f 120/62/81 115/60/81 116/65/81
f 117/63/82 114/58/82 120/59/82 116/66/82
f 114/62/83 112/61/83 118/61/83 120/62/83
f 123/73/84 122/72/84 121/71/84
f 127/62/85 126/62/85 125/61/85 124/61/85
f 127/62/85 130/74/85 129/74/85 128/62/85
f 130/74/85 124/61/85 131/61/85 129/74/85
f 135/78/86 134/72/86 133/77/86 132/76/86 130/75/86
f 137/105/87 136/104/87 123/103/87
f 137/105/88 123/103/88 135/108/88 130/107/88 132/106/88
f 123/73/89 136/78/89 122/72/89
f 135/78/90 123/73/90 121/71/90
f 135/78/91 121/71/91 134/72/91
f 122/89/35 138/88/35 133/87/35 134/86/35 121/85/35
f 132/98/92 133/97/92 138/96/92 137/95/92
f 137/76/93 138/77/93 122/72/93 136/78/93
usemtl eye03
s off
f 30/41/21 29/40/21 28/39/21 27/38/21 26/37/21 25/36/21
usemtl flat0
s off
f 56//35 55//35 54//35
f 73//35 72//35 71//35
