mtllib Medium_Lifter.mtl
o Medium_Lifter
v 2.339996 -2.027 0.822
v 0 -0.176 -2.506
v 0 -0.782 2.506
v -2.339996 -2.027 0.822
v 0.0007324219 2.027 0.837
v -1.525482 1.258 -2.052
v 1.525482 1.258 -2.052
v 1.546356 -0.421 0.472
v 1.253464 0.677 -0.433
v 0.9848785 0.624 0.365
v 3.402374 1.325 2.377
v 2.985016 1.345 2.071
v 2.975235 1.328 1.760
v 2.299881 1.462 3.108
v 4.822937 1.241 3.108
v 3.065994 1.302 1.429
v 3.61879 2.008 2.745
v 4.222122 2.304 2.598
v 4.449997 1.794 3.251
v 3.622894 -0.973 4.310
v 2.920273 1.819 3.319
v 3.382919 2.227 2.666
v 2.658142 -1.177 4.468
v 2.535492 2.302 2.666
v 5.00502 2.097 2.670
v -1.541245 -0.416 0.477
v -0.9808502 0.626 0.371
v -1.249008 0.679 -0.426
v -2.965149 1.328 1.760
v -2.974915 1.345 2.071
v -3.392273 1.325 2.377
v -3.055893 1.302 1.429
v -4.81282 1.241 3.108
v -2.28978 1.462 3.108
v -3.608673 2.008 2.745
v -3.612762 -0.973 4.310
v -4.439896 1.794 3.251
v -4.212006 2.304 2.598
v -2.648041 -1.177 4.468
v -3.372818 2.227 2.666
v -2.910172 1.819 3.319
v -2.525375 2.301 2.666
v -4.994919 2.097 2.670
vn -0.5235291 -0.846 -0.102
vn -0.6650238 0.382 0.642
vn 0.5235291 -0.846 -0.102
vn 0.6650085 0.381 0.642
vn 0 0.966 -0.257
vn 0.6059723 -0.433 -0.667
vn 0 0.301 -0.953
vn -0.6059723 -0.433 -0.667
vn 0.8243103 0.475 0.309
vn -0.8240967 0.475 0.309
vn -0.8243103 -0.475 -0.309
vn 0.08702087 0.995 -0.055
vn 0.7966614 -0.243 -0.553
vn -0.5812683 -0.233 0.780
vn -0.3078003 0.951 -0.041
vn -0.08702087 -0.995 0.055
vn -0.4316864 0.858 -0.279
vn 0.558136 0.611 -0.562
vn 0.042099 0.481 0.876
vn -0.6952057 0.429 0.577
vn 0.7462158 0.180 0.641
vn 0.07194519 0.822 0.564
vn -0.03929138 -0.457 -0.889
vn 0.7064819 0.059 0.705
vn 0.1600037 0.805 0.572
vn -0.04029846 -0.461 -0.887
vn -0.7035675 0.307 0.641
vn 0.8240967 -0.475 -0.309
vn -0.08702087 0.995 -0.055
vn -0.7966461 -0.244 -0.553
vn 0.5812378 -0.233 0.780
vn 0.3078003 0.951 -0.041
vn 0.08702087 -0.995 0.055
vn 0.4316864 0.858 -0.279
vn -0.558136 0.611 -0.562
vn -0.042099 0.481 0.876
vn 0.6952057 0.429 0.577
vn -0.7462158 0.180 0.641
vn -0.07194519 0.822 0.564
vn 0.03929138 -0.457 -0.889
vn -0.7064819 0.059 0.705
vn -0.1600037 0.805 0.572
vn 0.04029846 -0.461 -0.887
vn 0.7035675 0.307 0.641
vt 1.430054 -0.06349182
vt 0.512619 1.276031
vt 0.512619 -0.7414398
vt -0.002166748 0.1580048
vt 1.45755 -0.1756439
vt 0.4314575 1.161484
vt -0.4048004 -0.06349182
vt -0.1411438 0.2209167
vt 0.5740814 1.166885
vt 1.215225 -0.283493
vt 0.5129089 -0.06970215
vt -0.08544922 1.093414
vt 1.110703 1.093414
vt 0.05934143 0.7886047
vt 0.5359344 0.8687744
vt 0.3768463 0.7792358
vt 0.9523926 0.06559753
vt 0.3966217 0.1684265
vt 0.581955 0.2219849
vt 0.03857422 0.1204834
vt 0.9614105 0.1204834
vt 0.3187866 0.8795013
vt 0.5209808 0.2846985
vt 0.1993103 0.9561005
vt 0.5143738 0.7934875
vt 0.5458221 0.02322388
vt 0.5335846 0.827652
vt 0.8269501 0.9876404
vt 0.5063477 0.02006531
vt 0.1666718 0.9902496
vt 0.8051147 0.9559937
vt 0.3186188 0.8297577
vt 0.9803314 0.8201294
vt 0.8148499 0.9094391
vt 0.7391052 0.2649384
vt 0.9098053 0.2113647
vt 0.455246 0.1086273
vt 0.6816864 0.8795013
vt 0.0390625 0.1204834
vt 0.9618988 0.1204834
vt 0.4794922 0.2846985
vt 0.6407776 0.02033997
vt 0.5457458 0.7906189
vt 0.836441 0.9539185
vt 0.4827118 -0.02375793
vt 0.2325745 0.9512482
vt 0.4957733 0.7829285
vt 0.8147888 0.9520416
vt 0.2290192 0.952301
usemtl rbot006
s off
f 3/3/1 2/2/1 1/1/1
f 4/7/3 2/2/3 3/3/3
f 7/13/5 6/12/5 5/11/5
f 2/2/6 7/13/6 1/1/6
f 2/2/8 4/7/8 6/12/8
f 1/1/9 7/13/9 5/11/9
f 5/11/10 6/12/10 4/7/10
f 10/16/11 9/15/11 8/14/11
f 13/19/12 12/18/12 11/17/12
f 9/15/13 13/19/13 11/17/13 8/14/13
f 10/16/14 8/14/14 11/17/14 12/18/14
f 10/16/15 12/18/15 13/19/15 9/15/15
f 16/22/16 15/21/16 14/20/16
f 16/22/17 14/20/17 17/23/17
f 16/22/18 17/23/18 15/21/18
f 15/21/19 17/23/19 14/20/19
f 28/34/28 27/33/28 26/32/28
f 31/37/29 30/36/29 29/35/29
f 28/34/30 26/32/30 31/37/30 29/35/30
f 27/33/31 30/36/31 31/37/31 26/32/31
f 28/34/32 29/35/32 30/36/32 27/33/32
f 34/40/33 33/39/33 32/38/33
f 35/41/34 34/40/34 32/38/34
f 33/39/35 35/41/35 32/38/35
f 34/40/36 35/41/36 33/39/36
usemtl rbot008
s off
f 5/6/2 4/5/2 3/4/2
f 1/10/4 5/9/4 3/8/4
usemtl rbot009
s off
f 20/26/20 19/25/20 18/24/20
f 23/29/21 22/28/21 21/27/21
f 24/30/22 21/27/22 22/28/22
f 20/26/23 18/24/23 25/31/23
f 20/26/24 25/31/24 19/25/24
f 18/24/25 19/25/25 25/31/25
f 23/29/26 24/30/26 22/28/26
f 23/29/27 21/27/27 24/30/27
f 38/44/37 37/43/37 36/42/37
f 41/47/38 40/46/38 39/45/38
f 40/46/39 41/47/39 42/48/39
f 43/49/40 38/44/40 36/42/40
f 37/43/41 43/49/41 36/42/41
f 43/49/42 37/43/42 38/44/42
f 40/46/43 42/48/43 39/45/43
f 42/48/44 41/47/44 39/45/44
usemtl flat193
s off
f 2//7 6//7 7//7
