mtllib Medium_Lifter_LOD.mtl
o Medium_Lifter_LOD
v 3.89064 2.217 3.894
v 2.78038 0.438 -0.924
v 2.780396 -0.626 -0.924
v 3.89064 2.196 3.894
v 3.912949 2.252 3.991
v 3.915176 2.252 -3.956
v 2.277405 1.347 -3.107
v 2.165787 1.195 -3.592
v 2.445877 1.043 -2.376
v -2.710724 -0.626 -0.924
v -2.710724 0.438 -0.924
v -3.912231 2.272 3.861
v -2.343735 1.028 -2.386
v -3.915176 2.252 -3.991
v -2.167877 1.311 -3.086
v -2.041138 1.139 -3.591
v -1.157944 0.767 -2.563
v 0.03482056 -0.094 -3.148
v 1.2276 0.767 -2.563
v 3.750656 2.076 3.894
v 3.54393 2.029 3.894
v 0.462738 -1.178 3.894
v 0.688446 -0.952 3.894
v 0.9141541 -1.178 3.894
v 0.688446 -1.404 3.894
v -0.8407898 -1.178 3.894
v -0.6150818 -0.952 3.894
v -0.3893738 -1.178 3.894
v -0.6150818 -1.404 3.894
v 3.750656 2.163 3.894
v 1.2276 -0.665 2.389
v -1.157944 -0.665 2.389
v 0.03482056 -0.094 2.974
v 0.03738403 -0.092 2.972
v 0.03225708 -0.092 2.972
v 0.04371643 -0.089 2.976
v 0.3295898 -1.178 1.868
v 0.6926727 -0.815 2.237
v 0.6926727 -0.815 3.848
v 0.3295898 -1.178 3.848
v -0.973938 -1.178 1.868
v -0.6108551 -0.815 2.237
v -0.6108551 -0.815 3.848
v -0.973938 -1.178 3.848
v 0.02667236 -0.089 2.975
v -0.2477722 -1.178 3.848
v -0.2477722 -1.178 1.868
v -0.6108551 -1.541 3.848
v -0.6108551 -1.541 1.498
v 0.6926727 -1.541 3.848
v 0.6926727 -1.541 1.498
v 0.4350128 -1.861 3.165
v 0.07192993 -1.498 3.165
v 0.07192993 -1.498 1.554
v 0.4350128 -1.861 1.185
v -0.2911377 -1.861 3.165
v 0.07192993 -2.224 3.165
v -0.1579895 -1.861 3.212
v 0.06770325 -1.635 3.212
v 0.2934113 -1.861 3.212
v 0.06770325 -2.086 3.212
v 1.055756 -1.178 3.848
v 1.055756 -1.178 1.868
v -0.2911377 -1.861 1.185
v 0.07192993 -2.224 0.816
v 0.1921844 0.681 -2.132
v -1.157944 0.767 2.389
v -0.4186249 0.233 2.751
v 1.2276 0.767 2.389
v 1.26918 -2.272 0.754
v -1.168854 -2.272 0.754
v -1.157944 -0.955 -2.563
v 1.2276 -0.955 -2.563
v -3.363358 -3.494 4.365
v -4.378723 -3.494 3.285
v -3.866882 2.601 3.821
v -3.397202 -2.278 3.379
v -4.384079 -3.294 3.292
v -3.368698 -3.294 4.372
v -3.872208 -5.679 3.828
v -3.455521 -3.707 3.522
v 4.432785 -3.494 3.477
v 3.348984 -3.494 4.487
v 3.886978 2.601 3.978
v 3.44722 -2.278 3.506
v 3.355988 -3.294 4.493
v 4.439789 -3.294 3.482
v 3.893982 -5.679 3.983
v 3.589355 -3.707 3.565
v -4.344757 -3.494 -3.350
v -3.287796 -3.494 -4.389
v -3.812286 2.601 -3.866
v -3.360306 -2.278 -3.406
v -3.294907 -3.294 -4.394
v -4.351883 -3.294 -3.356
v -3.819397 -5.679 -3.871
v -3.503937 -3.707 -3.461
v 3.347321 -3.494 -4.500
v 4.408813 -3.494 -3.466
v 3.874069 2.601 -3.979
v 3.424118 -2.278 -3.517
v 4.413879 -3.294 -3.473
v 3.352386 -3.294 -4.507
v 3.87915 -5.679 -3.986
v 3.476212 -3.707 -3.662
vn 0.9744568 0.000 -0.225
vn -0.5335388 0.834 -0.140
vn -0.2611694 0.868 0.422
vn 0.9365387 0.000 0.351
vn -0.9698792 0.000 -0.244
vn 0.2545013 0.873 0.416
vn -0.9307861 0.000 0.366
vn 0.5285492 0.835 -0.152
vn 0 0.562 -0.827
vn 0.1283264 -0.565 0.815
vn 0 0.000 1.000
vn -0.5379333 0.833 0.130
vn 0.6230774 -0.729 0.283
vn -0.3483276 0.903 -0.253
vn 0 -0.715 0.699
vn 0 0.562 0.827
vn -0.7070923 0.707 0.000
vn -0.1423798 -0.547 0.825
vn 0.7070923 0.707 0.000
vn 0.7070923 -0.707 0.000
vn -0.7070923 -0.707 0.000
vn -0.7070923 0.707 0.000
vn -0.7071075 -0.707 0.000
vn 0.7071075 -0.707 0.000
vn 0.5323486 0.834 0.143
vn 0 0.980 0.197
vn 0.2072449 0.978 0.000
vn 0 1.000 0.000
vn -0.1037598 0.993 -0.050
vn 0.3548737 0.899 -0.256
vn 0.8412018 -0.375 0.390
vn -0.8361969 -0.388 0.387
vn -0.6244049 -0.728 0.284
vn 0 -0.713 0.701
vn -0.5068512 -0.801 -0.320
vn 0.5097809 -0.797 -0.323
vn 0 -0.562 -0.827
vn 0.5939636 -0.683 -0.426
vn 0.09681702 -0.464 -0.881
vn -0.5882568 -0.692 -0.418
vn -0.09135437 -0.469 -0.878
vn 0 -0.929 -0.369
vn -0.728363 0.001 0.685
vn 0.9931793 0.089 0.075
vn -0.01464844 0.089 -0.996
vn 0.6422272 -0.472 -0.604
vn -0.728363 -0.002 0.685
vn 0.1575623 -0.184 -0.970
vn 0.9783936 -0.207 0.001
vn 0.4539185 0.782 -0.427
vn 0.6819916 0.001 0.731
vn 0.07975769 0.089 -0.993
vn -0.9959869 0.089 0.010
vn -0.6013336 -0.472 -0.645
vn 0.6819916 -0.002 0.731
vn -0.9694824 -0.184 -0.162
vn 0.004928589 -0.207 -0.978
vn -0.4250031 0.782 -0.456
vn -0.7008972 0.001 -0.713
vn -0.0537262 0.089 0.995
vn 0.9953766 0.089 -0.036
vn 0.6180115 -0.472 0.629
vn -0.7008972 -0.002 -0.713
vn 0.9733887 -0.184 0.136
vn 0.02067566 -0.207 0.978
vn 0.4367828 0.782 0.444
vn 0.6977844 0.001 -0.716
vn -0.9955292 0.089 -0.032
vn 0.05807495 0.089 0.994
vn -0.6152649 -0.472 0.632
vn 0.6977844 -0.002 -0.716
vn -0.115097 -0.184 0.976
vn -0.9774933 -0.207 0.042
vn -0.434845 0.782 0.446
vt 0.5562439 0.5489655
vt -0.1241302 -0.3175507
vt -0.1102295 -0.4367981
vt 0.5565186 0.5466156
vt 0.5699158 0.5663757
vt 0.7521667 0.5247955
vt 0.6021576 0.1325684
vt 0.5024719 0.1744385
vt 0.7093506 0.01202393
vt 0.9221954 -0.2273102
vt 0.8361511 -0.3413849
vt 0.8738861 -0.5620575
vt 0.8599854 -0.4427948
vt 0.4642639 0.5608826
vt 0.4316864 0.07514954
vt 0.1451569 -0.08903503
vt 0.4940338 0.6025391
vt 0.568985 0.1538391
vt 0.05909729 -0.203125
vt 0.637558 0.1702728
vt 0.6123047 -0.1054993
vt 0.7965393 -0.3085632
vt 0.5059967 -0.1188354
vt 0.1983337 -0.2523346
vt 0.7132874 0.9368744
vt 0.2987976 0.9368744
vt 0.5060425 1.036499
vt 0.5750732 0.5135956
vt 0.6007843 0.4793549
vt 0.5739441 0.5232849
vt 0.7132874 0.0927887
vt 0.2987976 0.0927887
vt 0.5060425 -0.006835938
vt 0.506485 -0.006622314
vt 0.5056 -0.006622314
vt 0.6552429 -0.3069611
vt 0.8942566 -0.348053
vt 0.8935089 -0.3459473
vt 0.7499847 0.1571808
vt 0.5 0.3143768
vt 0.5 1
vt 0.7499847 1
vt 0.4942627 0.3143768
vt 0.4942627 1
vt -0.08273315 -0.2459717
vt -0.08387756 -0.2476349
vt 0.2020569 -0.2669373
vt 0.25 1
vt 0.25 0.1571808
vt 0.005722046 1
vt 0.005722046 0
vt 0.9999847 1
vt 0 0
vt 0.25 0.9807129
vt 0.5 0.9807129
vt 0.5 0.3083191
vt 0.25 0.1541595
vt 0.7499847 0.9807129
vt 0.9999847 0.9807129
vt 0.7499847 0.1541595
vt -0.08329773 -0.247345
vt 0.8937073 -0.3476105
vt 0.5333862 0.8634338
vt 0.0289917 0.657547
vt 0.1833344 -0.1064301
vt 0.0177002 -0.1939545
vt 0.9830933 0.657547
vt 0.4272461 0.03103638
vt 0.6365204 -0.1464691
vt 0.446106 -0.08947754
vt 0.1842957 0.902771
vt 0.9696045 1.144272
vt 0.03601074 1.084427
vt 0.787323 0.881424
vt 0.5617676 -0.07034302
vt 0.72052 0.3714142
vt 0.2969055 0.3714142
vt 0.3667603 -0.303421
vt 0.4730682 -0.2900848
vt 0.760437 0
vt 0.2415314 0
vt 0.5009003 1
vt 0.4910431 0.1994781
vt 0.2612 0.1753387
vt 0.7510529 0.1753387
vt 0.5063477 -0.3284149
vt 0.5470276 0.08795166
vt 0.7590637 0
vt 0.240921 0
vt 0.5001373 1
vt 0.5158997 0.1994781
vt 0.2347717 0.1753387
vt 0.7243805 0.1753387
vt 0.4798126 -0.3284149
vt 0.521225 0.08795166
vt 0.753479 0
vt 0.2376862 0
vt 0.4953461 0.9999847
vt 0.4687805 0.1994781
vt 0.2677155 0.1753387
vt 0.7587128 0.1753387
vt 0.5133972 -0.3284149
vt 0.5504303 0.08795166
vt 0.7596588 0
vt 0.240448 0
vt 0.5 0.9999847
vt 0.4940796 0.1994781
vt 0.2651215 0.1753387
vt 0.7570343 0.1753387
vt 0.5112152 -0.3284149
vt 0.5445709 0.08795166
usemtl rbot020
s off
f 5/5/1 4/4/1 3/3/1 2/2/1 1/1/1
f 8/8/2 7/7/2 6/6/2
f 2/10/3 6/6/3 7/7/3 9/9/3
f 3/11/4 6/6/4 2/10/4
f 12/14/5 11/13/5 10/12/5
f 15/18/6 14/17/6 11/16/6 13/15/6
f 11/16/7 14/17/7 10/19/7
f 16/20/8 14/17/8 15/18/8
f 18/22/8 16/20/8 15/18/8 17/21/8
f 8/8/2 18/24/2 19/23/2 7/7/2
f 13/15/6 17/21/6 15/18/6
f 9/9/3 7/7/3 19/23/3
f 21/29/10 20/28/10 5/5/10
f 21/29/12 5/5/12 30/30/12
f 20/28/13 4/4/13 5/5/13
f 30/30/14 5/5/14 1/1/14
f 36/38/10 33/37/10 31/36/10
f 32/47/18 33/46/18 45/45/18
f 45/45/25 33/46/25 35/61/25
f 34/62/12 33/37/12 36/38/12
f 19/23/3 2/10/3 9/9/3
f 13/15/6 11/16/6 17/21/6
f 45/45/25 35/61/25 68/66/25 67/65/25 12/14/25
f 34/62/12 36/38/12 21/29/12 30/30/12 69/69/12
f 69/69/14 30/30/14 1/1/14 2/2/14
f 67/65/30 11/13/30 12/14/30
f 32/47/33 12/14/33 10/12/33
f 20/28/13 31/36/13 3/3/13 4/4/13
f 45/45/18 12/14/18 32/47/18
f 21/29/10 36/38/10 31/36/10 20/28/10
f 73/78/38 6/6/38 3/11/38
f 18/24/39 8/8/39 6/6/39 73/78/39
f 10/19/40 14/17/40 72/79/40
f 18/22/41 72/79/41 14/17/41 16/20/41
f 76/82/43 75/81/43 74/80/43
f 76/82/44 74/80/44 77/83/44
f 76/82/45 77/83/45 75/81/45
f 75/81/46 77/83/46 74/80/46
f 80/86/47 79/85/47 78/84/47
f 80/86/48 78/84/48 81/87/48
f 80/86/49 81/87/49 79/85/49
f 79/85/50 81/87/50 78/84/50
f 84/90/51 83/89/51 82/88/51
f 84/90/52 82/88/52 85/91/52
f 84/90/53 85/91/53 83/89/53
f 83/89/54 85/91/54 82/88/54
f 88/94/55 87/93/55 86/92/55
f 88/94/56 86/92/56 89/95/56
f 88/94/57 89/95/57 87/93/57
f 87/93/58 89/95/58 86/92/58
f 92/98/59 91/97/59 90/96/59
f 92/98/60 90/96/60 93/99/60
f 92/98/61 93/99/61 91/97/61
f 91/97/62 93/99/62 90/96/62
f 96/102/63 95/101/63 94/100/63
f 96/102/64 94/100/64 97/103/64
f 96/102/65 97/103/65 95/101/65
f 95/101/66 97/103/66 94/100/66
f 100/106/67 99/105/67 98/104/67
f 100/106/68 98/104/68 101/107/68
f 100/106/69 101/107/69 99/105/69
f 99/105/70 101/107/70 98/104/70
f 104/110/71 103/109/71 102/108/71
f 104/110/72 102/108/72 105/111/72
f 104/110/73 105/111/73 103/109/73
f 103/109/74 105/111/74 102/108/74
usemtl rbot019
s off
f 18/27/9 17/26/9 19/25/9
f 33/33/15 32/32/15 31/31/15
f 35/35/16 33/33/16 34/34/16
f 11/64/26 66/63/26 19/25/26 17/26/26
f 2/67/27 19/25/27 69/31/27
f 68/68/16 69/31/16 67/32/16
f 69/31/28 19/25/28 67/32/28
f 67/32/29 19/25/29 66/63/29
f 68/68/16 35/35/16 34/34/16 69/31/16
f 67/32/29 66/63/29 11/64/29
f 71/77/34 70/76/34 31/31/34 32/32/34
f 10/64/35 72/26/35 71/77/35
f 70/76/36 73/25/36 3/67/36
f 18/27/37 73/25/37 72/26/37
f 70/76/42 71/77/42 72/26/42 73/25/42
usemtl rbot021
s off
f 31/72/31 70/71/31 3/70/31
f 10/75/32 71/74/32 32/73/32
usemtl rbot012
s off
f 40/42/17 39/41/17 38/40/17 37/39/17
f 44/42/17 43/44/17 42/43/17 41/39/17
f 47/49/19 42/43/19 43/44/19 46/48/19
f 49/51/20 47/49/20 46/48/20 48/50/20
f 37/39/21 51/53/21 50/52/21 40/42/21
f 55/57/19 54/56/19 53/55/19 52/54/19
f 57/59/11 52/54/11 53/55/11 56/58/11
f 51/53/20 63/49/20 62/48/20 50/52/20
f 56/58/22 53/55/22 54/56/22 64/60/22
f 63/49/19 38/40/19 39/41/19 62/48/19
f 48/50/11 46/48/11 43/44/11 44/42/11
f 41/39/21 49/51/21 48/50/21 44/42/21
f 64/60/23 65/53/23 57/59/23 56/58/23
f 65/53/24 55/57/24 52/54/24 57/59/24
f 50/52/11 62/48/11 39/41/11 40/42/11
usemtl flat0
s off
f 25//11 24//11 23//11 22//11
f 29//11 28//11 27//11 26//11
f 61//11 60//11 59//11 58//11
